# xmcd
#
# Track frame offsets:
#	150
#	13020
#	25987
#	43612
#	56100
#	71770
#	85870
#	103605
#	120230
#
# Disc length: 1807 seconds
#
# Revision: 1
# Processed by: cddbd v1.5.1PL0 Copyright (c) Steve Scherf et al.
# Submitted via: audiograbber 1.83.01
#
DISCID=70070d09
DTITLE=Various Artist - Country's Greatest Hits Vol 9 - 80's Country Duets
DYEAR=1991
DGENRE=
TTITLE0=Dwight Yoakam and Buck Owens - Streets Of Bakersfield
TTITLE1=Waylon Jennings and Willie Nelson - Just To Satisfy You
TTITLE2=Anne Murray With Dave Loggins - Nobody Loves Me Like You Do
TTITLE3=Glen Campbell and Rita Coolidge - Somethin'  'Bout You Baby I Like
TTITLE4=Crystal Gayle and Gary Morris - Makin' Up For Lost Time
TTITLE5=Glen Campbell with Steve Wariner - The Hand That Rocks The Cradle
TTITLE6=Eddie Rabbitt and Crystal Gayle - You And I
TTITLE7=Tanya Tucker, Paul Davis, and Paul Overstreet - I Won't Take Less Than 
TTITLE7=Your Love
TTITLE8=Frizzell and West - You're The Reason God Made Oklahoma
EXTD=
EXTT0=
EXTT1=
EXTT2=
EXTT3=
EXTT4=
EXTT5=
EXTT6=
EXTT7=
EXTT8=
PLAYORDER=
